# 
# Generated by Sweet Home 3D - Thu Dec 23 11:17:33 MMT 2021
# http://www.sweethome3d.com/
# 
mtllib back-roof.mtl
g wall_1_1
usemtl wall_1_1
v -60.96 396.34 -45.87872
v -60.96 396.34 -45.71997
v 304.8 396.34 -45.71997
v 304.8 396.34 -45.87872
vn 0.0 -1.0 0.0
f 4//1 3//1 2//1
f 4//1 2//1 1//1
g wall_1_2
usemtl wall_1_1
v -60.96 396.34 -45.561222
v 304.8 396.34 -45.561222
f 3//1 6//1 5//1
f 3//1 5//1 2//1
g wall_1_3
usemtl wall_1_1
v -60.96 408.34 -45.71997
v -60.96 408.34 -45.87872
v 304.8 805.5325 -45.87872
v 304.8 805.5325 -45.71997
vn -1.0 0.0 0.0
vn 1.0 0.0 0.0
vn 0.0 0.0 -1.0
vn 0.0 0.0 0.0
f 1//2 2//2 7//2 8//2
f 3//3 4//3 9//3 10//3
f 4//4 1//4 8//4 9//4
g wall_1_4
usemtl wall_1_1
v -60.96 408.34 -45.561222
v 304.8 805.5325 -45.561222
vn 0.0 0.0 1.0
f 2//2 5//2 11//2 7//2
f 5//6 6//6 12//6 11//6
f 6//3 3//3 10//3 12//3
g wall_1_5
usemtl wall_1_1
vn -0.7356145 0.6774004 0.0
f 8//7 7//7 10//7
f 8//7 10//7 9//7
g wall_1_6
usemtl wall_1_1
f 7//7 11//7 12//7
f 7//7 12//7 10//7
g wall_2_7
usemtl wall_1_1
v 304.8 396.34 -45.87875
v 304.8 396.34 -45.72
v 670.55994 396.34 -45.72
v 670.55994 396.34 -45.87875
f 16//1 15//1 14//1
f 16//1 14//1 13//1
g wall_2_8
usemtl wall_1_1
v 304.8 396.34 -45.561253
v 670.55994 396.34 -45.561253
f 15//1 18//1 17//1
f 15//1 17//1 14//1
g wall_2_9
usemtl wall_1_1
v 304.8 805.5325 -45.72
v 304.8 805.5325 -45.87875
v 670.55994 408.34 -45.87875
v 670.55994 408.34 -45.72
f 13//2 14//2 19//2 20//2
f 15//3 16//3 21//3 22//3
f 16//4 13//4 20//4 21//4
g wall_2_10
usemtl wall_1_1
v 304.8 805.5325 -45.561253
v 670.55994 408.34 -45.561253
f 14//2 17//2 23//2 19//2
f 17//6 18//6 24//6 23//6
f 18//3 15//3 22//3 24//3
g wall_2_11
usemtl wall_1_1
vn 0.73561454 0.67740035 0.0
f 20//8 19//8 22//8
f 20//8 22//8 21//8
g wall_2_12
usemtl wall_1_1
f 19//8 23//8 24//8
f 19//8 24//8 22//8
