# 
# Generated by Sweet Home 3D - Thu Dec 23 11:17:05 MMT 2021
# http://www.sweethome3d.com/
# 
mtllib front-roof.mtl
g wall_1_1
usemtl wall_1_1
v -60.80125 396.34 1417.1613
v -60.96 396.34 1417.32
v 304.8 396.34 1417.32
v 304.8 396.34 1417.1613
vn 0.0 -1.0 0.0
f 4//1 3//1 2//1
f 4//1 2//1 1//1
g wall_1_2
usemtl wall_1_1
v -61.118748 396.34 1417.4786
v 304.8 396.34 1417.4786
f 3//1 6//1 5//1
f 3//1 5//1 2//1
g wall_1_3
usemtl wall_1_1
v -60.96 408.34 1417.32
v -60.80125 408.5124 1417.1613
v 304.8 805.5325 1417.1613
v 304.8 805.5325 1417.32
vn -0.70697933 0.0 -0.7072342
vn 1.0 0.0 0.0
vn 0.0 0.0 -1.0
vn 0.0 0.0 0.0
f 1//2 2//2 7//2 8//2
f 3//3 4//3 9//3 10//3
f 4//4 1//4 8//4 9//4
g wall_1_4
usemtl wall_1_1
v -61.118748 408.1676 1417.4786
v 304.8 805.5325 1417.4786
vn -0.7069793 0.0 -0.70723426
vn 0.0 0.0 1.0
f 2//6 5//6 11//6 7//6
f 5//7 6//7 12//7 11//7
f 6//3 3//3 10//3 12//3
g wall_1_5
usemtl wall_1_1
vn -0.73561454 0.6774004 0.0000058
vn -0.73561454 0.6774004 0.0000116
vn -0.7356145 0.6774004 0.0
f 8//8 7//9 10//8
f 8//8 10//8 9//10
g wall_1_6
usemtl wall_1_1
vn -0.73561454 0.67740035 0.0000058
vn -0.73561454 0.6774004 0.0000116
vn -0.73561454 0.6774004 0.0
f 7//11 11//12 12//11
f 7//11 12//11 10//13
g wall_2_7
usemtl wall_1_1
v 670.55994 396.34 1417.32
v 670.4012 396.34 1417.1613
f 14//1 13//1 3//1
f 14//1 3//1 4//1
g wall_2_8
usemtl wall_1_1
v 670.7187 396.34 1417.4786
f 13//1 15//1 6//1
f 13//1 6//1 3//1
g wall_2_9
usemtl wall_1_1
v 670.4012 408.5124 1417.1613
v 670.55994 408.34 1417.32
vn -1.0 0.0 0.0
vn 0.7069708 0.0 -0.7072427
f 4//14 3//14 10//14 9//14
f 13//15 14//15 16//15 17//15
f 14//4 4//4 9//4 16//4
g wall_2_10
usemtl wall_1_1
v 670.7187 408.1676 1417.4786
f 3//14 6//14 12//14 10//14
f 6//7 15//7 18//7 12//7
f 15//15 13//15 17//15 18//15
g wall_2_11
usemtl wall_1_1
vn 0.73561454 0.67740035 -0.0000031
vn 0.73561454 0.6774004 0.0
vn 0.73561454 0.6774004 -0.0000061
f 9//16 10//17 17//16
f 9//16 17//16 16//18
g wall_2_12
usemtl wall_1_1
vn 0.73561454 0.67740035 -0.0000031
vn 0.73561454 0.67740035 0.0
vn 0.73561454 0.6774004 -0.0000061
f 10//19 12//20 18//19
f 10//19 18//19 17//21
